
<svg
   width="1643.8311pt" height="214.51822pt" version="1.1"
   viewBox="0 0 1643.8311 214.51822" xml:space="preserve"
   xmlns="http://www.w3.org/2000/svg">
  <g
    transform="matrix(39.175,0,0,39.175,-5041.4077,-57872.133)"
    fill="#3e3a39" opacity="0.7">
  <path
    transform="matrix(1.3333,0,0,-1.3333,153.21,1479.6)"
    d="M 0,0 H -0.836 V 0.888 H 0 C 0.241,0.888 0.444,0.685 0.444,0.444 0.444,0.203 0.241,0 0,0 m 0.515,-0.6 0.027,0.012 c 0.406,0.185 0.668,0.59 0.668,1.032 0,0.625 -0.509,1.134 -1.134,1.134 h -1.754 v -3.797 h 0.842 v 1.529 h 0.512 l 0.747,-1.529 h 0.884 z"/>
  <path
    transform="matrix(1.3333,0,0,-1.3333,157.44,1479.4)"
    d="m 0,0 c -0.488,0.125 -0.687,0.202 -0.687,0.458 0,0.234 0.194,0.373 0.52,0.373 0.434,0 0.54,-0.225 0.549,-0.425 h 0.809 c -0.015,0.817 -0.708,1.19 -1.353,1.19 -0.869,0 -1.324,-0.573 -1.324,-1.138 0,-0.902 0.701,-1.074 1.213,-1.198 0.523,-0.128 0.736,-0.213 0.736,-0.544 0,-0.294 -0.324,-0.399 -0.6,-0.399 -0.39,0 -0.655,0.204 -0.67,0.512 h -0.8 c 0.016,-0.732 0.636,-1.281 1.455,-1.281 0.836,0 1.419,0.49 1.419,1.193 C 1.267,-0.325 0.535,-0.137 0,0"
    clip-path="url(#clipPath20)"/>
  <path
    transform="matrix(1.3333,0,0,-1.3333,161.43,1478.5)"
    d="M 0,0 H 1.089 V -3.032 H 1.963 V 0 H 3.051 V 0.765 H 0 Z"/>
  <path
    transform="matrix(1.3333,0,0,-1.3333,169.5,1477.5)"
    d="M 0,0 -0.94,-1.505 -1.88,0 h -0.863 l 1.366,-2.188 v -1.609 h 0.873 v 1.609 L -0.5,-2.181 0.863,0 Z"
    clip-path="url(#clipPath21)"/>
  <path
    transform="matrix(1.3333,0,0,-1.3333,0,1546.3)"
    d="m 119.77,47.79 h 0.874 v 3.797 h -0.874 z"/>
  <path
    transform="matrix(1.3333,0,0,-1.3333,131.86,1480.7)"
    d="m 0,0 c 0,-0.364 -0.337,-0.659 -0.751,-0.659 -0.414,0 -0.751,0.295 -0.751,0.659 V 2.387 H -2.378 V 0 c 0,-0.847 0.73,-1.536 1.627,-1.536 0.897,0 1.627,0.689 1.627,1.536 V 2.387 H 0 Z"
    clip-path="url(#clipPath22)"/>
  <path
    transform="matrix(1.3333,0,0,-1.3333,143.6,1481.1)"
    d="m 0,0 -1.022,2.716 h -0.835 l 1.429,-3.797 h 0.856 l 1.43,3.797 H 1.022 Z"/>
  <path
    transform="matrix(1.3333,0,0,-1.3333,137.37,1480.8)"
    d="m 0,0 -1.66,2.454 h -0.947 v -3.797 h 0.842 v 2.454 l 1.66,-2.454 H 0.842 V 2.454 H 0 Z"/>
  <path
    transform="matrix(1.3333,0,0,-1.3333,146.66,1482.5)"
    d="M 0,0 H 2.584 V 0.764 H 0.842 v 0.834 h 1.6 v 0.69 h -1.6 V 3.069 H 2.584 V 3.797 H 0 Z"/>
  <path
    transform="matrix(1.3333,0,0,-1.3333,0,1546.3)"
    d="m 104.52,47.79 h 0.874 v 3.797 h -0.874 z"/>
  </g>
</svg>
