<svg
  width="1675pt" height="1696pt" version="1.1" viewBox="0 0 1675 1696"
  xml:space="preserve" xmlns="http://www.w3.org/2000/svg">
  <g transform="matrix(43.03 0 0 43.03 -1745.5 -62252)">
    <g fill="#004686">
      <path
        transform="matrix(1.3333 0 0 -1.3333 50.996 1485.8)"
        d="m0 0c-3.824 0-6.934 3.111-6.934 6.934v13.265h3.48v-13.265c0-1.905 1.549-3.454 3.454-3.454 0.221 0 0.439 0.021 0.651 0.062 0.941-1.019 2.112-1.784 3.41-2.229-1.174-0.849-2.602-1.313-4.061-1.313"/>
      <path
        transform="matrix(1.3333 0 0 -1.3333 69.062 1485.8)"
        d="m0 0c-1.459 0-2.886 0.464-4.06 1.313 1.299 0.447 2.47 1.212 3.409 2.229 0.216-0.041 0.434-0.062 0.651-0.062 1.905 0 3.454 1.549 3.454 3.454v13.265h3.48v-13.265c0-3.823-3.11-6.934-6.934-6.934"/>
      <path
        transform="matrix(1.3333 0 0 -1.3333 60.028 1482.8)"
        d="m0 0c-0.464 0-0.933 0.047-1.393 0.141-1.337 0.274-2.555 0.934-3.523 1.909-1.301 1.31-2.018 3.045-2.018 4.885v11.005h3.481v-11.005c0-1.904 1.549-3.454 3.453-3.454 1.905 0 3.454 1.55 3.454 3.454v11.005h3.481v-11.005c0-1.84-0.716-3.575-2.018-4.885-0.969-0.975-2.187-1.635-3.524-1.909-0.459-0.094-0.928-0.141-1.393-0.141"/>
    </g>
    <path
      transform="matrix(1.3333 0 0 -1.3333 40.802 1450.9)"
      d="m0 0c4.648 1.918 9.575 2.89 14.645 2.89 4.904 0 9.679-0.911 14.195-2.708l-1.303-3.227c-4.101 1.629-8.437 2.454-12.892 2.454-4.606 0-9.08-0.881-13.301-2.62z"
      fill="#f08c00"/>
  </g>
</svg>
