<svg
  width="1439.1721pt" height="207.95123pt" version="1.1"
  viewBox="0 0 1439.1721 207.95123" xml:space="preserve"
  xmlns="http://www.w3.org/2000/svg">
  <g transform="matrix(38.539,0,0,38.539,-3387.0668,-56933.463)"
     fill="#3e3a39" opacity="0.7">
  <path
    transform="matrix(1.3333,0,0,-1.3333,117.77,1480.4)"
    d="M 0,0 1.495,-1.603 H 2.54 L 0.769,0.296 2.54,2.194 H 1.495 L 0,0.591 V 2.194 H -0.875 V -1.603 H 0 Z"/>
  <path
    transform="matrix(1.3333,0,0,-1.3333,112.69,1480.6)"
    d="M 0,0 0.539,1.341 1.078,0 Z M 0.968,2.352 H 0.11 l -1.525,-3.797 h 0.834 l 0.304,0.755 h 1.632 l 0.303,-0.755 h 0.835 z"/>
  <path
    transform="matrix(1.3333,0,0,-1.3333,110.47,1481.5)"
    d="M 0,0 H -1.691 V 3.032 H -2.565 V -0.765 H 0 Z"/>
  <path
    transform="matrix(1.3333,0,0,-1.3333,125.23,1481.5)"
    d="m 0,0 h -1.742 v 0.833 h 1.599 v 0.69 H -1.742 V 2.305 H 0 V 3.032 H -2.584 V -0.765 H 0 Z"/>
  <path
    transform="matrix(1.3333,0,0,-1.3333,97.541,1481.5)"
    d="m 0,0 h -1.742 v 0.833 h 1.6 v 0.69 h -1.6 V 2.305 H 0 V 3.032 H -2.584 V -0.765 H 0 Z"/>
  <path
    transform="matrix(1.3333,0,0,-1.3333,103.86,1482.5)"
    d="M 0,0 H 0.875 V 3.032 H 1.963 V 3.797 H -1.088 V 3.032 H 0 Z"/>
  <path
    transform="matrix(1.3333,0,0,-1.3333,90.556,1479.7)"
    d="M 0,0 1.17,-2.12 H 2.002 V 1.677 H 1.238 V -0.66 L 0.277,1.08 h -0.554 l -0.96,-1.74 V 1.677 H -2.002 V -2.12 h 0.832 z"/>
  <path
    transform="matrix(1.3333,0,0,-1.3333,101.94,1481.1)"
    d="m 0,0 c 0,0.934 -0.732,1.122 -1.267,1.259 -0.488,0.125 -0.687,0.202 -0.687,0.458 0,0.234 0.194,0.373 0.52,0.373 0.433,0 0.54,-0.225 0.548,-0.426 h 0.81 c -0.015,0.818 -0.709,1.19 -1.354,1.19 -0.868,0 -1.323,-0.572 -1.323,-1.137 0,-0.902 0.701,-1.073 1.213,-1.198 0.523,-0.128 0.735,-0.213 0.735,-0.544 0,-0.294 -0.323,-0.399 -0.599,-0.399 -0.39,0 -0.655,0.205 -0.67,0.512 h -0.8 c 0.016,-0.732 0.636,-1.281 1.455,-1.281 C -0.584,-1.193 0,-0.702 0,0"
    clip-path="url(#clipPath23)"/>
  </g>
</svg>
